<?xml version="1.0" encoding="UTF-8"?>
<svg version="1.1" xmlns="http://www.w3.org/2000/svg" width="100" height="100">
    <path d="M0 0 C2.4375 1.25 2.4375 1.25 3.4375 4.25 C1.16227642 9.47620427 -3.29897824 13.23840548 -7.29296875 17.17578125 C-8.04338943 17.92337204 -8.79381012 18.67096283 -9.56697083 19.44120789 C-11.95664753 21.81972071 -14.35319633 24.19117123 -16.75 26.5625 C-18.37480764 28.17727297 -19.99916193 29.79250226 -21.62304688 31.40820312 C-25.59762584 35.36077201 -29.57786468 39.30757065 -33.5625 43.25 C-32.1917723 46.33261171 -30.63736451 48.40901182 -28.23022461 50.76171875 C-27.5528978 51.42921143 -26.87557098 52.0967041 -26.17771912 52.78442383 C-25.44747025 53.49493896 -24.71722137 54.2054541 -23.96484375 54.9375 C-22.42631657 56.45561189 -20.88790872 57.97384474 -19.34960938 59.4921875 C-16.92035992 61.87786849 -14.48871043 64.26104049 -12.05444336 66.64160156 C-9.70568598 68.94217322 -7.36612971 71.25179854 -5.02734375 73.5625 C-4.29507065 74.27301514 -3.56279755 74.98353027 -2.80833435 75.71557617 C-2.1341597 76.38306885 -1.45998505 77.05056152 -0.76538086 77.73828125 C-0.16962753 78.32134033 0.42612579 78.90439941 1.03993225 79.50512695 C2.6092552 81.46443756 3.20519001 82.75288086 3.4375 85.25 C1.5 87.5 1.5 87.5 -0.5625 89.25 C-4.45687008 87.92180644 -6.87708093 86.32339311 -9.80200195 83.44628906 C-10.60245438 82.6649762 -11.4029068 81.88366333 -12.22761536 81.07867432 C-13.50133247 79.8099649 -13.50133247 79.8099649 -14.80078125 78.515625 C-15.68154831 77.64484314 -16.56231537 76.77406128 -17.46977234 75.87689209 C-19.32697965 74.0348589 -21.18014634 72.18874411 -23.02954102 70.33886719 C-24.92530621 68.44285732 -26.83113362 66.55799009 -28.74731445 64.68261719 C-31.50956443 61.97520862 -34.2511808 59.24843017 -36.98828125 56.515625 C-38.2771801 55.25906097 -38.2771801 55.25906097 -39.59211731 53.97711182 C-40.37680893 53.18319031 -41.16150055 52.3892688 -41.9699707 51.57128906 C-43.01324272 50.53442963 -43.01324272 50.53442963 -44.07759094 49.47662354 C-46.06994193 46.48909001 -46.09939325 44.77635839 -45.5625 41.25 C-44.0194397 38.97868347 -44.0194397 38.97868347 -41.83056641 36.82104492 C-41.01617096 36.00387497 -40.20177551 35.18670502 -39.36270142 34.34477234 C-38.47215057 33.48205215 -37.58159973 32.61933197 -36.6640625 31.73046875 C-35.75876801 30.83129227 -34.85347351 29.93211578 -33.92074585 29.00569153 C-31.51533536 26.62266725 -29.09753262 24.25375743 -26.67303467 21.89025879 C-24.69441594 19.95529503 -22.72891671 18.00730027 -20.76397133 16.05846691 C-16.70737076 12.03580955 -12.64063961 8.02332429 -8.55322266 4.03198242 C-7.82930328 3.32393967 -7.10538391 2.61589691 -6.35952759 1.88639832 C-3.24498149 -0.94975068 -3.24498149 -0.94975068 0 0 Z " fill="#FFFFFF" transform="translate(71.5625,5.75)"/>
</svg>
