<?xml version="1.0" encoding="UTF-8"?>
<svg version="1.1" xmlns="http://www.w3.org/2000/svg" width="100" height="100">
<path d="M0 0 C5.99278157 6.12898115 9.67878974 13.82193671 9.78125 22.44140625 C9.16498523 33.51876554 4.86540683 40.81605612 -2.9375 48.4375 C-5.02980867 50.58635755 -6.01886312 52.14784757 -7.25 54.8125 C-11.47823768 55.04514031 -15.70483337 55.18702126 -19.9375 55.3125 C-21.73477539 55.41304687 -21.73477539 55.41304687 -23.56835938 55.515625 C-32.28196427 55.70980004 -32.28196427 55.70980004 -35.10766602 53.09057617 C-36.36293203 51.04525977 -37.28705201 49.00543423 -38.25 46.8125 C-39.87652316 45.10663425 -41.54006566 43.4347454 -43.25 41.8125 C-48.44966014 36.61283986 -50.11550498 29.91977102 -50.3515625 22.7109375 C-49.85068602 13.28968941 -46.87074644 6.58371795 -40.25 -0.1875 C-27.73880556 -10.0921956 -12.77219438 -8.5966693 0 0 Z M-20.25 4.8125 C-20.58 6.1325 -20.91 7.4525 -21.25 8.8125 C-20.56292969 9.04324219 -19.87585938 9.27398437 -19.16796875 9.51171875 C-11.77680602 12.18691785 -11.77680602 12.18691785 -9.25 15.1875 C-8.1626012 18.04192185 -7.13409973 20.88817011 -6.25 23.8125 C-4.93 23.4825 -3.61 23.1525 -2.25 22.8125 C-1.61532582 17.73510652 -2.9164617 14.74606495 -5.6953125 10.6484375 C-8.2636841 7.61543586 -10.56855508 6.36258207 -14.25 4.8125 C-17.54376525 4.47559702 -17.54376525 4.47559702 -20.25 4.8125 Z " fill="#FFFFFF" transform="translate(70.25,27.1875)"/>
<path d="M0 0 C8.58 0 17.16 0 26 0 C26 9 26 9 24.56640625 11.53515625 C20.72806399 13.72599087 17.28045442 13.54443534 12.9375 13.4375 C12.12216797 13.44458984 11.30683594 13.45167969 10.46679688 13.45898438 C4.47698646 13.39500119 4.47698646 13.39500119 2.30688477 11.59790039 C-1.04218458 7.50306406 0 6.5072701 0 0 Z " fill="#FFFFFF" transform="translate(37,87)"/>
<path d="M0 0 C4.00197252 0.69599522 5.8249046 2.70446126 8.55859375 5.609375 C9.875 7.5 9.875 7.5 9.8125 10.4375 C8.875 12.5 8.875 12.5 6.8125 13.4375 C3.19844456 13.5143948 2.63154368 12.79261631 0.0625 10.375 C-2.18313358 7.93938875 -3.04907433 6.9365726 -3.625 3.625 C-2.96636904 0.8258184 -2.7991816 0.65863096 0 0 Z " fill="#FFFFFF" transform="translate(77.125,73.5)"/>
<path d="M0 0 C2.125 0.5 2.125 0.5 3.125 1.5 C3.625 3.625 3.625 3.625 3.125 6.5 C1.12214991 9.27578097 -1.06261367 11.54178885 -3.875 13.5 C-6.8125 13.4375 -6.8125 13.4375 -8.875 12.5 C-9.8125 10.4375 -9.8125 10.4375 -9.875 7.5 C-7.2809847 3.7744706 -4.55072712 0.7914308 0 0 Z " fill="#FFFFFF" transform="translate(22.875,73.5)"/>
<path d="M0 0 C2.0625 0.9375 2.0625 0.9375 3 3 C3.0768948 6.61405544 2.35511631 7.18095632 -0.0625 9.75 C-2.49811125 11.99563358 -3.5009274 12.86157433 -6.8125 13.4375 C-8.9375 12.9375 -8.9375 12.9375 -9.9375 11.9375 C-10.4375 9.8125 -10.4375 9.8125 -9.9375 6.9375 C-7.25076812 3.21391667 -4.78865667 -0.10188631 0 0 Z " fill="#FFFFFF" transform="translate(83.9375,13.0625)"/>
<path d="M0 0 C0.886875 -0.00257812 1.77375 -0.00515625 2.6875 -0.0078125 C5 0.125 5 0.125 7 1.125 C7 3.105 7 5.085 7 7.125 C4.53630468 8.35684766 2.8105499 8.29232342 0.0625 8.3125 C-0.81277344 8.32667969 -1.68804687 8.34085938 -2.58984375 8.35546875 C-5 8.125 -5 8.125 -8 6.125 C-7.625 3.6875 -7.625 3.6875 -7 1.125 C-4.51245214 -0.11877393 -2.77344699 -0.00806235 0 0 Z " fill="#FFFFFF" transform="translate(93,45.875)"/>
<path d="M0 0 C0.87527344 -0.01417969 1.75054687 -0.02835938 2.65234375 -0.04296875 C5.0625 0.1875 5.0625 0.1875 8.0625 2.1875 C7.6875 4.625 7.6875 4.625 7.0625 7.1875 C4.57495214 8.43127393 2.83594699 8.32056235 0.0625 8.3125 C-0.824375 8.31507812 -1.71125 8.31765625 -2.625 8.3203125 C-4.9375 8.1875 -4.9375 8.1875 -6.9375 7.1875 C-6.9375 5.2075 -6.9375 3.2275 -6.9375 1.1875 C-4.47380468 -0.04434766 -2.7480499 0.02017658 0 0 Z " fill="#FFFFFF" transform="translate(6.9375,45.8125)"/>
<path d="M0 0 C3.67992082 0.10514059 5.68504616 1.32801056 8.3125 3.75 C10.40133218 5.97273168 10.95538126 6.71316523 11.4375 9.8125 C11 12 11 12 10 13 C7.6796875 13.296875 7.6796875 13.296875 5 13 C2.9453125 11.390625 2.9453125 11.390625 1.125 9.25 C0.50882813 8.55390625 -0.10734375 7.8578125 -0.7421875 7.140625 C-2 5 -2 5 -1.7578125 2.796875 C-1 1 -1 1 0 0 Z " fill="#FFFFFF" transform="translate(15,13)"/>
<path d="M0 0 C1.98 0 3.96 0 6 0 C7.23184766 2.46369532 7.16732342 4.1894501 7.1875 6.9375 C7.20167969 7.81277344 7.21585938 8.68804687 7.23046875 9.58984375 C7 12 7 12 5 15 C2.5625 14.625 2.5625 14.625 0 14 C-1.24377393 11.51245214 -1.13306235 9.77344699 -1.125 7 C-1.12757812 6.113125 -1.13015625 5.22625 -1.1328125 4.3125 C-1 2 -1 2 0 0 Z " fill="#FFFFFF" transform="translate(47,0)"/>
</svg>
