<?xml version="1.0" encoding="UTF-8"?>
<svg version="1.1" xmlns="http://www.w3.org/2000/svg" width="100" height="100">
<path d="M0 0 C2.86401367 1.35424805 2.86401367 1.35424805 5.66796875 3.26171875 C6.71734619 3.96288818 7.76672363 4.66405762 8.84790039 5.38647461 C9.96131726 6.15316803 11.07451278 6.920183 12.1875 7.6875 C13.33672549 8.4632778 14.48704703 9.23743427 15.63842773 10.01000977 C17.96921606 11.57542446 20.29502211 13.14787432 22.61816406 14.72460938 C28.37720928 18.61817563 34.25359858 22.33401795 40.11987305 26.06323242 C41.26903198 26.80343628 41.26903198 26.80343628 42.44140625 27.55859375 C43.10857666 27.98454834 43.77574707 28.41050293 44.46313477 28.84936523 C46 30 46 30 47 32 C47.3125 34.875 47.3125 34.875 47 38 C43.78627586 41.92335358 39.55386226 44.38857681 35.3125 47.0625 C33.78768415 48.03633892 32.26294687 49.01030089 30.73828125 49.984375 C29.95662598 50.48130859 29.1749707 50.97824219 28.36962891 51.49023438 C25.30031134 53.44579381 22.24275596 55.41915767 19.18774414 57.39697266 C17.73936877 58.33410918 16.28935489 59.26871859 14.83764648 60.20068359 C11.10580352 62.60213483 7.47382769 65.08902441 3.875 67.6875 C0.19288314 70.16365223 -2.51678117 70.71731501 -7 70 C-10 68 -10 68 -11 65 C-11.09862727 63.07361122 -11.13824228 61.143987 -11.14526367 59.21508789 C-11.15164352 58.02698013 -11.15802338 56.83887238 -11.16459656 55.61476135 C-11.16570938 54.33036667 -11.1668222 53.04597198 -11.16796875 51.72265625 C-11.17129715 50.40462509 -11.17462555 49.08659393 -11.17805481 47.72862244 C-11.18404089 44.93862082 -11.18589523 42.14865016 -11.18530273 39.35864258 C-11.1852011 35.7864047 -11.19885707 32.21436551 -11.21607494 28.64217472 C-11.22987702 25.23149881 -11.22928386 21.82085974 -11.23046875 18.41015625 C-11.23765427 17.1277858 -11.24483978 15.84541534 -11.25224304 14.52418518 C-11.2476281 12.7372953 -11.2476281 12.7372953 -11.24291992 10.91430664 C-11.24505745 9.3423629 -11.24505745 9.3423629 -11.24723816 7.73866272 C-10.99599604 4.95564802 -10.52360849 3.32403031 -9 1 C-5.92111334 -0.53944333 -3.40270717 -0.2430346 0 0 Z " fill="#FFFFFF" transform="translate(32,15)"/>
</svg>
