<?xml version="1.0" encoding="UTF-8"?>
<svg version="1.1" xmlns="http://www.w3.org/2000/svg" width="100" height="100">
<path d="M0 0 C1.85625 -0.01160156 1.85625 -0.01160156 3.75 -0.0234375 C7 0.375 7 0.375 8.67886353 1.49145508 C10.63691439 4.28304916 10.38140568 6.5242873 10.38818359 9.91015625 C10.39344055 10.56901825 10.39869751 11.22788025 10.40411377 11.90670776 C10.41731412 14.0838799 10.40857626 16.26032047 10.3984375 18.4375 C10.40045824 19.95060364 10.40336968 21.46370633 10.40713501 22.97680664 C10.41155838 26.14771804 10.40512711 29.31837589 10.39111328 32.48925781 C10.3740211 36.55495892 10.38386225 40.62006593 10.40183067 44.68574524 C10.41266832 47.81014487 10.40922232 50.93440351 10.4014473 54.05880737 C10.39944522 55.55793325 10.40190485 57.0570719 10.40888596 58.55618286 C10.41650046 60.65108166 10.40489789 62.74501678 10.38818359 64.83984375 C10.38579681 66.032146 10.38341003 67.22444824 10.38095093 68.45288086 C10 71.375 10 71.375 8.67886353 73.25854492 C5.91397883 75.09721109 3.258819 74.77036762 0 74.75 C-1.2375 74.75773437 -2.475 74.76546875 -3.75 74.7734375 C-7 74.375 -7 74.375 -8.67886353 73.25854492 C-10.63691439 70.46695084 -10.38140568 68.2257127 -10.38818359 64.83984375 C-10.39344055 64.18098175 -10.39869751 63.52211975 -10.40411377 62.84329224 C-10.41731412 60.6661201 -10.40857626 58.48967953 -10.3984375 56.3125 C-10.40045824 54.79939636 -10.40336968 53.28629367 -10.40713501 51.77319336 C-10.41155838 48.60228196 -10.40512711 45.43162411 -10.39111328 42.26074219 C-10.3740211 38.19504108 -10.38386225 34.12993407 -10.40183067 30.06425476 C-10.41266832 26.93985513 -10.40922232 23.81559649 -10.4014473 20.69119263 C-10.39944522 19.19206675 -10.40190485 17.6929281 -10.40888596 16.19381714 C-10.41650046 14.09891834 -10.40489789 12.00498322 -10.38818359 9.91015625 C-10.38579681 8.717854 -10.38341003 7.52555176 -10.38095093 6.29711914 C-10 3.375 -10 3.375 -8.67886353 1.49145508 C-5.91397883 -0.34721109 -3.258819 -0.02036762 0 0 Z " fill="#FFFFFF" transform="translate(70,12.625)"/>
<path d="M0 0 C1.85625 -0.01160156 1.85625 -0.01160156 3.75 -0.0234375 C7 0.375 7 0.375 8.67886353 1.49145508 C10.63691439 4.28304916 10.38140568 6.5242873 10.38818359 9.91015625 C10.39344055 10.56901825 10.39869751 11.22788025 10.40411377 11.90670776 C10.41731412 14.0838799 10.40857626 16.26032047 10.3984375 18.4375 C10.40045824 19.95060364 10.40336968 21.46370633 10.40713501 22.97680664 C10.41155838 26.14771804 10.40512711 29.31837589 10.39111328 32.48925781 C10.3740211 36.55495892 10.38386225 40.62006593 10.40183067 44.68574524 C10.41266832 47.81014487 10.40922232 50.93440351 10.4014473 54.05880737 C10.39944522 55.55793325 10.40190485 57.0570719 10.40888596 58.55618286 C10.41650046 60.65108166 10.40489789 62.74501678 10.38818359 64.83984375 C10.38579681 66.032146 10.38341003 67.22444824 10.38095093 68.45288086 C10 71.375 10 71.375 8.67886353 73.25854492 C5.91397883 75.09721109 3.258819 74.77036762 0 74.75 C-1.2375 74.75773437 -2.475 74.76546875 -3.75 74.7734375 C-7 74.375 -7 74.375 -8.67886353 73.25854492 C-10.63691439 70.46695084 -10.38140568 68.2257127 -10.38818359 64.83984375 C-10.39344055 64.18098175 -10.39869751 63.52211975 -10.40411377 62.84329224 C-10.41731412 60.6661201 -10.40857626 58.48967953 -10.3984375 56.3125 C-10.40045824 54.79939636 -10.40336968 53.28629367 -10.40713501 51.77319336 C-10.41155838 48.60228196 -10.40512711 45.43162411 -10.39111328 42.26074219 C-10.3740211 38.19504108 -10.38386225 34.12993407 -10.40183067 30.06425476 C-10.41266832 26.93985513 -10.40922232 23.81559649 -10.4014473 20.69119263 C-10.39944522 19.19206675 -10.40190485 17.6929281 -10.40888596 16.19381714 C-10.41650046 14.09891834 -10.40489789 12.00498322 -10.38818359 9.91015625 C-10.38579681 8.717854 -10.38341003 7.52555176 -10.38095093 6.29711914 C-10 3.375 -10 3.375 -8.67886353 1.49145508 C-5.91397883 -0.34721109 -3.258819 -0.02036762 0 0 Z " fill="#FFFFFF" transform="translate(30,12.625)"/>
</svg>
