<?xml version="1.0" encoding="UTF-8"?>
<svg version="1.1" xmlns="http://www.w3.org/2000/svg" width="100" height="100">
<path d="M0 0 C1.0209375 0.433125 1.0209375 0.433125 2.0625 0.875 C2.296875 3.140625 2.296875 3.140625 2.0625 5.875 C0.453125 7.796875 0.453125 7.796875 -1.6875 9.625 C-7.55829296 15.16328787 -10.44638993 21.47523903 -11.0390625 29.546875 C-10.6744444 37.90504384 -7.110591 44.84293527 -1.125 50.5625 C4.7631913 54.83432506 10.78374183 57.07652913 18.0625 56.875 C27.12611754 55.21835691 33.60348454 51.39958888 39.0625 43.875 C42.77685077 36.84426462 43.98671101 30.37274334 41.875 22.6875 C39.92825346 17.01387382 37.19297301 12.88376315 32.8125 8.8125 C30.54603961 6.65423747 30.10972134 6.23703026 29.6875 3 C29.873125 1.948125 29.873125 1.948125 30.0625 0.875 C32.28515625 0.17578125 32.28515625 0.17578125 35.0625 -0.125 C42.81139603 4.12004739 46.98245468 11.89988266 50.0625 19.875 C52.42409681 29.35018721 51.36966488 38.67156041 46.7734375 47.29296875 C41.03770557 56.44866919 33.8961139 61.46465726 23.625 64.625 C11.478713 65.81000361 1.66510616 63.70822 -7.9375 55.875 C-15.36352506 48.97822394 -18.81484137 40.18717323 -19.1875 30.1875 C-19.03405398 19.84523825 -15.10767297 11.51311357 -8.16796875 3.9453125 C-3.8233252 -0.16269469 -3.8233252 -0.16269469 0 0 Z " fill="#FFFFFF" transform="translate(33.9375,20.125)"/>
<path d="M0 0 C1.875 0.8125 1.875 0.8125 2.875 2.8125 C3.08620957 7.07751339 3.06079674 11.34631227 3.06030273 15.6159668 C3.06248798 17.73832281 3.0806452 19.86015795 3.09960938 21.98242188 C3.10254367 23.33072739 3.10452823 24.67903537 3.10546875 26.02734375 C3.10957764 27.25573975 3.11368652 28.48413574 3.11791992 29.74975586 C2.875 32.8125 2.875 32.8125 0.875 35.8125 C-1.5625 35.4375 -1.5625 35.4375 -4.125 34.8125 C-6.27525244 30.51199511 -5.35197178 24.78522618 -5.36523438 20.0090332 C-5.37494745 17.88648399 -5.40597427 15.76490032 -5.4375 13.64257812 C-5.44402955 12.29427658 -5.44928021 10.94596812 -5.453125 9.59765625 C-5.4624707 8.36926025 -5.47181641 7.14086426 -5.48144531 5.87524414 C-5.125 2.8125 -5.125 2.8125 -3.73730469 0.87670898 C-2.125 -0.1875 -2.125 -0.1875 0 0 Z " fill="#FFFFFF" transform="translate(51.125,10.1875)"/>
</svg>
