<svg width="77" height="77" fill="none" xmlns="http://www.w3.org/2000/svg"><g transform="translate(-2.5 -2.5)"><rect width="77" height="77" x="2.5" y="2.5" ry="18.181" fill="#fff" fill-rule="evenodd"/><path d="M39.295 21.693c-3.974.299-7.467 1.686-10.518 4.264h-.284c-2.888-2.663-4.99-.61-2.274 2.274v.284c-2.576 3.048-3.944 6.55-4.264 10.517-1.63 0-8.717-.924-8.717 1.706s7.087 1.705 8.717 1.705c.32 3.962 1.748 7.439 4.264 10.517v.285c-2.686 2.892-.618 4.96 2.274 2.274h.284c3.077 2.5 6.566 3.945 10.518 4.263 0 1.631-.925 8.718 1.705 8.718s1.705-7.087 1.705-8.718c3.952-.318 7.441-1.764 10.518-4.263h.284c2.892 2.685 4.96.618 2.274-2.274v-.285c2.516-3.078 3.944-6.555 4.264-10.517 1.63 0 8.717.925 8.717-1.705s-7.087-1.706-8.717-1.706c-.32-3.967-1.688-7.47-4.264-10.517v-.284c2.775-2.975.697-5.112-2.274-2.274-1.704-1.23-3.437-2.35-5.4-3.126-1.383-.545-4.802-1.427-4.802-1.427s-.231-4.402-1.133-6.725c-.588-1.514-1.94-1.532-2.312-.27-.655 2.222-.565 4.986-.565 7.284m-4.537 9.493c4.692-.766 5.79 6.683 1.108 7.45-4.748.777-5.852-6.676-1.108-7.45z" fill="#030303"/></g></svg>