<svg width="77" height="77" fill="none" xmlns="http://www.w3.org/2000/svg"><g transform="matrix(1.18718 0 0 1.18376 -4.943 -9.308)" stroke="#000"><rect width="72" height="72" x="5" y="5" ry="17" transform="matrix(.90082 0 0 .90343 -.34 3.346)" fill="#fff" fill-rule="evenodd" stroke="none"/><g stroke-width="1.504"><path d="M43.866 18.564h14.496V33.06H43.866zm-.01 14.664h14.496v14.496H43.856z"/><path d="M43.84 47.724h14.496V62.22H43.84z"/></g><path d="M29.36 18.553h14.497V33.05H29.36zm-.01 14.664h14.497v14.496H29.35zm-.015 14.496H43.83V62.21H29.335zM14.85 18.552h14.497v14.496H14.85zm-.01 14.664h14.497v14.496H14.84zm-.015 14.496H29.32v14.496H14.825z" stroke-width="1.504"/></g></svg>